# xmcd CD database file
#
# Track frame offsets:
#	150
#	13109
#	30831
#	46339
#	67092
#	80915
#	95435
#	107255
#	126122
#	149244
#	167861
#	186255
#	201155
#	216040
#	225817
#
# Disc length: 3150 seconds
#
# Revision: 2
# Processed by: cddbd v1.5.2PL0 Copyright (c) Steve Scherf et al.
# Submitted via: CDex 1.51
#
DISCID=ce0c4c0f
DTITLE=James Mathus and His Knockdown Society - National Antiseptic
DYEAR=2001
DGENRE=Blues
TTITLE0=Call Your Dawgs Off
TTITLE1=Take A Ride With Me
TTITLE2=Snake Drive
TTITLE3=Drinkin' Antiseptic
TTITLE4=Stranger
TTITLE5=Innit For The Money
TTITLE6=Shake It And Break It
TTITLE7=Rock Of Ages
TTITLE8=Boogie
TTITLE9=Issaqueena St. Shuffle
TTITLE10=Spare Change
TTITLE11=Chicken Town
TTITLE12=Hambone
TTITLE13=Back To The Bottoms
TTITLE14=Nightingale
EXTD=YEAR: 2001
EXTT0=
EXTT1=
EXTT2=
EXTT3=
EXTT4=
EXTT5=
EXTT6=
EXTT7=
EXTT8=
EXTT9=
EXTT10=
EXTT11=
EXTT12=
EXTT13=
EXTT14=
PLAYORDER=
